# xmcd
#
# Track frame offsets: 
#        150
#        11833
#        34178
#        55355
#        74681
#        90767
#        99348
#        114111
#        129522
#        145587
#        160163
#        183775
#        194716
#        210048
#        225689
#        241592
#        259092
#        284605
#
# Disc length: 4206 seconds
#
# Revision: 0
# Processed by: cddbd v1.5.2PL0 Copyright (c) Steve Scherf et al.
# Submitted via: ExactAudioCopy v0.95a5
#
DISCID=ed106c12
DTITLE=BB king - king of the blues
DYEAR=2002
DGENRE=Blues-rock
TTITLE0=payin' the cose to be the boss
TTITLE1=the thrill is gone
TTITLE2=everyday i iave the blues
TTITLE3=sweet sixten
TTITLE4=the other night blues
TTITLE5=a new way of driving
TTITLE6=bb boogie
TTITLE7=walkin' and cryin'
TTITLE8=it's my own fault
TTITLE9=mr pawnbroker
TTITLE10=you've done lost your good thing now
TTITLE11=catfish blues
TTITLE12=how blues can you get
TTITLE13=the letter
TTITLE14=long nights
TTITLE15=that evil child
TTITLE16=guess who
TTITLE17=outside help
EXTD=
EXTT0=
EXTT1=
EXTT2=
EXTT3=
EXTT4=
EXTT5=
EXTT6=
EXTT7=
EXTT8=
EXTT9=
EXTT10=
EXTT11=
EXTT12=
EXTT13=
EXTT14=
EXTT15=
EXTT16=
EXTT17=
PLAYORDER=
